<svg width="172" height="172" viewBox="0 0 172 172" fill="none" xmlns="http://www.w3.org/2000/svg">
<g clip-path="url(#clip0)">
<path d="M172 86C172.013 97.0478 169.892 107.994 165.753 118.237C165.743 118.26 165.735 118.281 165.725 118.303V118.306C162.943 125.165 159.284 131.634 154.838 137.552C153.98 138.697 153.096 139.818 152.184 140.915C151.851 141.317 151.512 141.717 151.174 142.111C149.431 144.134 147.597 146.072 145.673 147.925C145.225 148.358 144.772 148.785 144.314 149.207C144.207 149.307 144.101 149.403 143.994 149.503C141.752 151.551 139.404 153.479 136.958 155.278C135.317 156.492 133.633 157.645 131.905 158.736C131.526 158.978 131.145 159.215 130.76 159.449C130.094 159.856 129.421 160.253 128.743 160.642C127.857 161.151 126.961 161.644 126.053 162.12C125.687 162.316 125.318 162.504 124.949 162.693C124.41 162.97 123.868 163.237 123.321 163.499C123.226 163.545 123.132 163.591 123.038 163.634C122.682 163.807 122.321 163.975 121.959 164.143C117.254 166.313 112.36 168.05 107.339 169.331C107.311 169.339 107.286 169.344 107.258 169.351C106.93 169.435 106.599 169.517 106.268 169.596C106.021 169.657 105.772 169.715 105.523 169.771C105.492 169.781 105.46 169.789 105.428 169.794C104.917 169.914 104.406 170.028 103.889 170.132C103.599 170.193 103.309 170.255 103.019 170.313C102.843 170.351 102.665 170.384 102.49 170.417C102.268 170.461 102.05 170.501 101.828 170.545C101.706 170.57 101.584 170.59 101.459 170.611C101.179 170.662 100.899 170.713 100.622 170.761C100.149 170.842 99.6706 170.921 99.1948 170.992C98.8487 171.046 98.5052 171.097 98.1592 171.145C97.7521 171.204 97.345 171.257 96.9354 171.308C96.8234 171.326 96.7115 171.338 96.5995 171.351C96.4545 171.369 96.3095 171.387 96.1644 171.405C95.8718 171.44 95.5792 171.473 95.2841 171.504C95.1314 171.522 94.9813 171.537 94.8286 171.552C94.5386 171.583 94.2485 171.611 93.9585 171.636C93.5844 171.672 93.2104 171.702 92.8338 171.733C92.3758 171.768 91.9204 171.802 91.4599 171.83C91.1647 171.847 90.8696 171.865 90.5719 171.88C89.8136 171.921 89.0554 171.949 88.2921 171.969C87.913 171.98 87.5313 171.987 87.1497 171.992H87.1421C86.7629 171.997 86.3813 172 85.9996 172C82.1319 172.002 78.2685 171.743 74.4354 171.227C71.6239 170.85 68.8573 170.339 66.1357 169.695C66.0263 169.669 65.9169 169.644 65.81 169.616C65.5352 169.552 65.2629 169.484 64.9907 169.415C64.749 169.354 64.5098 169.29 64.2681 169.227C58.0385 167.606 52.0124 165.285 46.3048 162.308C46.2768 162.293 46.2463 162.278 46.2183 162.263C46.0529 162.176 45.89 162.092 45.7272 162.003C45.3684 161.815 45.0114 161.623 44.656 161.428C42.6332 160.316 40.6622 159.127 38.7429 157.861C38.2493 157.538 37.7607 157.21 37.2773 156.876C37.1221 156.769 36.9694 156.662 36.8168 156.556C36.6565 156.444 36.4962 156.332 36.3384 156.22C35.9186 155.922 35.5013 155.621 35.0866 155.316C33.3691 154.054 31.7026 152.731 30.0869 151.345C24.3601 146.44 19.2997 140.807 15.0344 134.59C13.5459 132.422 12.1567 130.185 10.8667 127.878C3.71774 115.08 -0.0241567 100.66 -0.000375633 86C-0.000375633 38.5041 38.5037 0 85.9996 0C133.496 0 172 38.5041 172 86Z" fill="#F5487F"/>
<path opacity="0.2" d="M99.8286 169.616C100.103 169.552 100.376 169.484 100.648 169.415C100.89 169.354 101.129 169.29 101.371 169.227C101.383 168.72 101.401 168.163 101.419 167.56C101.569 162.838 101.923 155.235 102.757 146.075C102.803 145.584 102.849 145.09 102.895 144.592C103.192 141.488 103.541 138.223 103.958 134.839C103.971 134.727 103.986 134.618 103.999 134.506C104.337 131.763 104.721 128.947 105.154 126.077C105.457 124.069 105.784 122.039 106.136 119.988C106.162 119.845 106.187 119.7 106.212 119.558C106.314 118.965 106.419 118.375 106.525 117.779C106.823 116.123 107.141 114.456 107.474 112.79C108.647 106.928 110.044 101.03 111.711 95.2921C113.404 89.3417 115.489 83.51 117.952 77.8351C119.863 73.4267 122.139 69.1857 124.756 65.1564C124.794 65.0979 124.832 65.042 124.87 64.9834C128.216 59.943 132.04 55.6659 136.407 52.4676L135.501 51.2311C131.318 54.297 127.481 58.3765 123.99 63.4695C123.972 63.495 123.957 63.5179 123.939 63.5433C121.314 67.4361 119.023 71.5437 117.09 75.8225C114.501 81.5458 112.318 87.4437 110.556 93.4728C108.887 99.0756 107.39 105.146 106.065 111.683C105.599 113.986 105.155 116.345 104.732 118.761C104.66 119.174 104.589 119.586 104.518 120.001C104.518 120.006 104.515 120.013 104.515 120.018C104.406 120.654 104.302 121.291 104.195 121.934C103.93 123.555 103.681 125.163 103.447 126.758C103.085 129.216 102.759 131.632 102.467 134.005C102.37 134.788 102.277 135.566 102.187 136.338C102.06 137.427 101.94 138.502 101.826 139.562C101.666 141.037 101.519 142.482 101.386 143.895L101.348 144.284C101.327 144.508 101.307 144.732 101.287 144.953C100.254 156.095 99.9304 165.095 99.8286 169.616Z" fill="black"/>
<path opacity="0.2" d="M119.334 162.308C119.362 162.293 119.392 162.278 119.42 162.263C119.945 161.99 120.464 161.713 120.983 161.428C121.153 159.398 121.382 157.166 121.682 154.82C121.746 154.337 121.81 153.846 121.881 153.352C121.917 153.088 121.955 152.82 121.993 152.551C122.293 150.485 122.649 148.353 123.077 146.21C124.815 137.468 127.7 128.532 132.491 123.016C132.748 122.718 133.01 122.433 133.282 122.156C133.957 121.455 134.69 120.812 135.473 120.235L134.567 119.001C133.474 119.809 132.468 120.729 131.565 121.746C131.247 122.1 130.936 122.468 130.634 122.85C126.224 128.4 123.471 136.615 121.756 144.75C121.308 146.872 120.932 148.991 120.611 151.055C120.53 151.594 120.452 152.128 120.377 152.658C119.881 156.154 119.553 159.456 119.334 162.308Z" fill="black"/>
<path opacity="0.2" d="M144.963 52.4321C149.191 52.4321 152.619 49.0045 152.619 44.7764C152.619 40.5483 149.191 37.1207 144.963 37.1207C140.735 37.1207 137.307 40.5483 137.307 44.7764C137.307 49.0045 140.735 52.4321 144.963 52.4321Z" fill="black"/>
<path opacity="0.2" d="M142.498 118.334C146.726 118.334 150.153 114.906 150.153 110.678C150.153 106.45 146.726 103.022 142.498 103.022C138.27 103.022 134.842 106.45 134.842 110.678C134.842 114.906 138.27 118.334 142.498 118.334Z" fill="black"/>
<path opacity="0.2" d="M114.57 57.6356C116.193 66.7947 112.609 75.0881 112.609 75.0881C112.609 75.0881 106.394 68.5317 104.77 59.3726C103.147 50.2135 106.731 41.9201 106.731 41.9201C106.731 41.9201 112.946 48.4765 114.57 57.6356Z" fill="black"/>
<path opacity="0.2" d="M140.013 79.3773C131.277 82.5718 122.498 80.5218 122.498 80.5218C122.498 80.5218 127.884 73.2925 136.62 70.098C145.356 66.9035 154.134 68.9535 154.134 68.9535C154.134 68.9535 148.749 76.1828 140.013 79.3773Z" fill="black"/>
<path opacity="0.2" d="M141.494 137.736C135.371 139.975 129.209 138.514 129.209 138.514C129.209 138.514 132.975 133.423 139.098 131.184C145.222 128.945 151.383 130.406 151.383 130.406C151.383 130.406 147.617 135.497 141.494 137.736Z" fill="black"/>
<path d="M111.942 136.447L112.253 136.608C112.222 136.938 112.148 137.142 111.942 136.447Z" fill="#2F2E41"/>
<path d="M112.352 136.554C112.355 136.59 112.36 136.628 112.362 136.664L112.253 136.608C112.255 136.575 112.258 136.539 112.263 136.503C112.289 136.058 112.258 135.531 112.352 136.554Z" fill="#2F2E41"/>
<path d="M79.3039 124.382C102.379 124.382 121.085 105.676 121.085 82.6009C121.085 59.5259 102.379 40.82 79.3039 40.82C56.2289 40.82 37.5229 59.5259 37.5229 82.6009C37.5229 105.676 56.2289 124.382 79.3039 124.382Z" fill="#2F2E41"/>
<path d="M82.7434 122.679C96.7175 122.679 108.046 111.351 108.046 97.3766C108.046 83.4024 96.7175 72.0742 82.7434 72.0742C68.7692 72.0742 57.4409 83.4024 57.4409 97.3766C57.4409 111.351 68.7692 122.679 82.7434 122.679Z" fill="#D0CDE1"/>
<path d="M140.518 145.872L140.488 145.879L134.603 147.292L122.349 150.233L120.677 150.635L102.042 155.105L100.46 155.487L55.2486 166.336C52.1923 165.167 49.2061 163.822 46.3051 162.308C46.2771 162.293 46.2466 162.278 46.2186 162.263C46.0532 162.176 45.8903 162.092 45.7275 162.003C45.3687 161.815 45.0117 161.623 44.6563 161.428C42.6335 160.316 40.6625 159.127 38.7432 157.861C38.2496 157.538 37.7611 157.21 37.2776 156.876C37.1224 156.769 36.9698 156.662 36.8171 156.556C36.6568 156.444 36.4965 156.332 36.3388 156.22C35.9189 155.922 35.5016 155.621 35.0869 155.317C39.4785 147.335 49.9359 142.03 60.3933 139.127C68.286 136.933 70.0212 129.725 69.8711 123.311C69.8329 121.848 69.7089 120.388 69.4996 118.94C69.1808 116.634 68.6736 114.359 67.9832 112.136L93.287 112.981L95.8976 118.996C95.8261 119.656 95.8032 120.321 95.8289 120.985C96.0273 125.919 99.0729 129.109 102.831 131.168C103.32 131.435 103.821 131.684 104.33 131.916C110.492 134.717 117.746 134.908 117.746 134.908C119.955 134.664 122.186 134.706 124.384 135.033C124.919 135.114 125.438 135.212 125.942 135.325C128.883 135.983 131.662 137.226 134.112 138.982C135.047 139.647 135.933 140.381 136.76 141.177C138.231 142.554 139.497 144.135 140.518 145.872Z" fill="#D0CDE1"/>
<path d="M144.315 149.207C144.208 149.307 144.101 149.403 143.994 149.503C141.753 151.551 139.404 153.479 136.959 155.278C135.318 156.492 133.633 157.645 131.906 158.736C131.526 158.978 131.145 159.215 130.761 159.449C130.094 159.856 129.421 160.253 128.743 160.642C127.857 161.151 126.961 161.644 126.054 162.12C125.687 162.316 125.318 162.504 124.949 162.693C124.41 162.97 123.868 163.237 123.321 163.499C123.227 163.545 123.133 163.591 123.038 163.634L121.962 162.741L134.603 147.292L137.144 144.185C137.144 144.185 138.16 144.185 140.488 145.879C141.775 146.837 142.991 147.886 144.126 149.019C144.187 149.083 144.251 149.144 144.315 149.207Z" fill="#D0CDE1"/>
<path d="M144.136 149.034C144.102 149.194 144.055 149.351 143.994 149.503C141.753 151.551 139.404 153.479 136.959 155.278C134.837 156.043 132.636 156.566 130.397 156.838C130.397 156.838 130.588 157.795 130.761 159.449C130.094 159.856 129.421 160.253 128.743 160.642C127.858 161.151 126.961 161.644 126.054 162.12C125.687 162.316 125.318 162.504 124.949 162.693C124.41 162.97 123.868 163.237 123.321 163.499C123.227 163.545 123.133 163.591 123.038 163.634C122.682 163.807 122.321 163.975 121.96 164.143C117.254 166.313 112.361 168.05 107.34 169.331C107.312 169.339 107.286 169.344 107.258 169.351C106.93 169.435 106.599 169.517 106.268 169.596C106.022 169.657 105.772 169.715 105.523 169.771C105.492 169.781 105.461 169.789 105.429 169.794C104.917 169.914 104.406 170.028 103.889 170.132C103.599 170.193 103.309 170.255 103.019 170.313C102.844 170.351 102.666 170.384 102.49 170.417C102.269 170.461 102.05 170.501 101.829 170.545C101.706 170.57 101.584 170.59 101.46 170.611C101.18 170.662 100.9 170.713 100.622 170.761C100.149 170.842 99.6709 170.921 99.1951 170.992C98.8491 171.046 98.5056 171.097 98.1595 171.145C97.7524 171.204 97.3453 171.257 96.9357 171.308C96.8237 171.326 96.7118 171.338 96.5998 171.351C96.4548 171.369 96.3098 171.387 96.1648 171.405C95.8722 171.44 95.5795 171.473 95.2844 171.504C95.1317 171.522 94.9816 171.537 94.829 171.552C94.5389 171.583 94.2488 171.611 93.9588 171.636C93.5848 171.672 93.2107 171.702 92.8342 171.733C92.3762 171.768 91.9207 171.802 91.4602 171.83C91.1651 171.847 90.8699 171.865 90.5722 171.88C89.814 171.921 89.0558 171.949 88.2924 171.969C87.9133 171.98 87.5317 171.987 87.15 171.992H87.1424C86.7633 171.997 86.3816 172 86 172C82.1322 172.002 78.2688 171.743 74.4358 171.227C71.6242 170.85 68.8576 170.339 66.136 169.695C66.0266 169.669 65.9172 169.644 65.8103 169.616C65.5355 169.552 65.2633 169.484 64.991 169.415C64.7493 169.354 64.5101 169.29 64.2684 169.227C58.0389 167.606 52.0128 165.285 46.3051 162.308C46.2771 162.293 46.2466 162.278 46.2186 162.263C46.0532 162.176 45.8904 162.092 45.7275 162.003C59.6936 158.749 81.7636 153.617 100.915 149.22C101.452 149.098 101.985 148.976 102.516 148.854C109.589 147.23 116.214 145.719 121.82 144.455C122.4 144.325 122.968 144.198 123.524 144.073C129.547 142.719 134.224 141.691 136.76 141.177C137.444 141.021 138.135 140.9 138.831 140.814L144.126 149.019L144.136 149.034Z" fill="#2F2E41"/>
<path d="M41.0787 64.8218C47.9521 64.8218 53.5241 59.2498 53.5241 52.3764C53.5241 45.503 47.9521 39.931 41.0787 39.931C34.2053 39.931 28.6333 45.503 28.6333 52.3764C28.6333 59.2498 34.2053 64.8218 41.0787 64.8218Z" fill="#2F2E41"/>
<path d="M117.529 61.266C124.403 61.266 129.975 55.694 129.975 48.8206C129.975 41.9472 124.403 36.3752 117.529 36.3752C110.656 36.3752 105.084 41.9472 105.084 48.8206C105.084 55.694 110.656 61.266 117.529 61.266Z" fill="#2F2E41"/>
<path d="M104.195 43.4868C104.195 40.4173 105.33 37.4562 107.381 35.1725C109.432 32.8889 112.255 31.4438 115.307 31.115C113.569 30.9251 111.81 31.1036 110.146 31.6388C108.481 32.174 106.948 33.0539 105.647 34.2211C104.345 35.3883 103.304 36.8167 102.591 38.4132C101.878 40.0097 101.51 41.7385 101.51 43.4868C101.51 45.2352 101.878 46.9639 102.591 48.5604C103.304 50.1569 104.345 51.5853 105.647 52.7525C106.948 53.9198 108.481 54.7997 110.146 55.3348C111.81 55.87 113.569 56.0485 115.307 55.8587C112.255 55.5298 109.432 54.0848 107.381 51.8011C105.33 49.5175 104.195 46.5564 104.195 43.4868Z" fill="#2F2E41"/>
<path d="M27.1728 62.4432C25.0249 60.2504 23.7631 57.3412 23.6299 54.2745C23.4967 51.2079 24.5016 48.2002 26.4513 45.8295C25.077 46.9103 23.9459 48.2685 23.1316 49.8156C22.3172 51.3627 21.838 53.0641 21.7252 54.8088C21.6123 56.5535 21.8683 58.3025 22.4765 59.9416C23.0847 61.5808 24.0315 63.0734 25.2551 64.3222C26.4787 65.571 27.9517 66.548 29.5781 67.1896C31.2046 67.8311 32.9479 68.1227 34.6946 68.0454C36.4412 67.9682 38.152 67.5238 39.7154 66.7412C41.2789 65.9586 42.6598 64.8554 43.7684 63.5034C41.3584 65.4044 38.3309 66.3477 35.2676 66.152C32.2043 65.9563 29.3214 64.6355 27.1728 62.4432Z" fill="#2F2E41"/>
<path d="M79.304 63.0439C64.5752 63.0439 52.6353 70.0089 52.6353 78.6006C52.6353 82.445 55.0353 85.9584 58.997 88.6727L64.131 84.9527L62.7348 90.7805C63.3141 91.049 63.9057 91.3088 64.5226 91.549L72.1923 82.601V93.5936C74.5441 93.9704 76.9222 94.1589 79.304 94.1574C94.0327 94.1574 105.973 87.1924 105.973 78.6006C105.973 70.0089 94.0327 63.0439 79.304 63.0439Z" fill="#2F2E41"/>
<path d="M105.084 48.8206C105.084 48.8206 103.151 57.7101 115.229 61.266L105.084 48.8206Z" fill="#2F2E41"/>
<path d="M52.6352 50.4385C52.6352 50.4385 57.08 60.377 43.7456 64.8218L52.6352 50.4385Z" fill="#2F2E41"/>
<path d="M59.2269 107.31C60.3483 106.996 60.6466 104.56 59.8932 101.869C59.1397 99.1773 57.6199 97.25 56.4985 97.5639C55.3771 97.8779 55.0788 100.314 55.8322 103.005C56.5857 105.697 58.1055 107.624 59.2269 107.31Z" fill="#D0CDE1"/>
<path d="M110.572 98.3496C110.744 95.5601 109.941 93.2407 108.778 93.1691C107.616 93.0975 106.535 95.3009 106.363 98.0904C106.191 100.88 106.994 103.199 108.156 103.271C109.319 103.342 110.4 101.139 110.572 98.3496Z" fill="#D0CDE1"/>
</g>
<defs>
<clipPath id="clip0">
<rect width="172" height="172" fill="white"/>
</clipPath>
</defs>
</svg>
