<svg width="540" height="410" viewBox="0 0 540 410" fill="none" xmlns="http://www.w3.org/2000/svg">
<g clip-path="url(#clip0)">
<path d="M401.173 77.245C402.549 75.7196 403.817 74.1013 404.97 72.4014L380.856 66.7763L407.213 68.7352C410.111 63.4136 411.891 57.5579 412.443 51.5265C412.995 45.4951 412.307 39.4148 410.422 33.6576L373.813 49.6007L408.048 27.8564C405.345 22.3825 401.542 17.5224 396.874 13.5789C392.206 9.63543 386.775 6.69302 380.918 4.93499C375.06 3.17696 368.903 2.64096 362.829 3.3604C356.755 4.07983 350.895 6.03927 345.613 9.11667C340.331 12.1941 335.742 16.3235 332.129 21.2477C328.517 26.1719 325.96 31.7853 324.617 37.7384C323.275 43.6915 323.175 49.8566 324.325 55.8497C325.475 61.8428 327.849 67.5355 331.301 72.5732C329.156 74.947 327.275 77.5445 325.688 80.3207L356.236 98.8405L323.248 85.285C320.409 92.1145 319.321 99.5424 320.084 106.897C320.847 114.251 323.436 121.299 327.617 127.404C322.49 133.081 318.917 139.98 317.242 147.435C315.567 154.891 315.847 162.652 318.054 169.968C320.262 177.284 324.323 183.909 329.846 189.204C335.368 194.498 342.165 198.282 349.581 200.192C348.883 201.806 348.468 203.528 348.356 205.283C348.156 207.878 348.653 210.479 349.796 212.818C348.374 214.996 347.536 217.501 347.361 220.094C347.187 222.688 347.683 225.282 348.801 227.63C347.379 229.807 346.541 232.312 346.366 234.906C346.192 237.499 346.688 240.093 347.806 242.441C346.384 244.619 345.545 247.124 345.371 249.717C345.197 252.31 345.693 254.905 346.81 257.252C345.365 259.419 344.525 261.93 344.376 264.528C343.926 271.221 347.716 276.924 352.841 277.267C357.966 277.61 362.485 272.462 362.935 265.769C363.135 263.174 362.638 260.573 361.496 258.234C362.917 256.056 363.756 253.551 363.93 250.958C364.104 248.365 363.609 245.77 362.491 243.423C363.913 241.245 364.751 238.74 364.925 236.147C365.099 233.553 364.604 230.959 363.486 228.611C364.908 226.434 365.746 223.928 365.92 221.335C366.094 218.742 365.599 216.148 364.481 213.8C365.926 211.634 366.766 209.122 366.915 206.524C367.041 204.745 366.854 202.957 366.362 201.243C373.927 200.277 381.117 197.389 387.243 192.857C393.37 188.325 398.227 182.3 401.351 175.359C404.475 168.418 405.76 160.793 405.084 153.215C404.407 145.636 401.793 138.358 397.489 132.076C404.176 124.672 408.175 115.24 408.843 105.296C409.511 95.3525 406.81 85.4732 401.173 77.245V77.245Z" fill="#F5487F" fill-opacity="0.8"/>
<path d="M449.838 273.217C449.838 279.77 403.521 302.221 348.342 302.221C293.163 302.221 250.018 279.77 250.018 273.217C250.018 266.664 293.163 278.49 348.342 278.49C403.521 278.49 449.838 266.664 449.838 273.217Z" fill="#3F3D56"/>
<path opacity="0.1" d="M449.838 273.217C449.838 279.77 403.521 302.221 348.342 302.221C293.163 302.221 250.018 279.77 250.018 273.217C250.018 266.664 293.163 278.49 348.342 278.49C403.521 278.49 449.838 266.664 449.838 273.217Z" fill="black"/>
<path d="M349.928 285.082C405.106 285.082 449.838 279.77 449.838 273.217C449.838 266.664 405.106 261.351 349.928 261.351C294.749 261.351 250.018 266.664 250.018 273.217C250.018 279.77 294.749 285.082 349.928 285.082Z" fill="#3F3D56"/>
<path opacity="0.1" d="M352.291 284.41C371.005 284.41 386.175 280.086 386.175 274.752C386.175 269.418 371.005 265.094 352.291 265.094C333.577 265.094 318.406 269.418 318.406 274.752C318.406 280.086 333.577 284.41 352.291 284.41Z" fill="black"/>
<path d="M359.725 210.615C361.022 208.357 361.692 205.795 361.666 203.193C361.666 196.485 357.503 191.047 352.366 191.047C347.23 191.047 343.066 196.485 343.066 203.193C343.04 205.795 343.71 208.357 345.007 210.615C343.734 212.883 343.066 215.438 343.066 218.037C343.066 220.636 343.734 223.192 345.007 225.46C343.734 227.727 343.066 230.283 343.066 232.882C343.066 235.481 343.734 238.036 345.007 240.304C343.734 242.572 343.066 245.127 343.066 247.726C343.066 250.325 343.734 252.881 345.007 255.149C343.71 257.407 343.04 259.969 343.066 262.571C343.066 269.279 347.23 274.716 352.366 274.716C357.503 274.716 361.666 269.279 361.666 262.571C361.692 259.969 361.022 257.407 359.725 255.149C360.998 252.881 361.666 250.325 361.666 247.726C361.666 245.127 360.998 242.572 359.725 240.304C360.998 238.036 361.666 235.481 361.666 232.882C361.666 230.283 360.998 227.727 359.725 225.46C360.998 223.192 361.666 220.636 361.666 218.037C361.666 215.438 360.998 212.883 359.725 210.615Z" fill="#3F3D56"/>
<path d="M352.366 200.494C357.503 200.494 361.666 195.056 361.666 188.348C361.666 181.64 357.503 176.203 352.366 176.203C347.23 176.203 343.066 181.64 343.066 188.348C343.066 195.056 347.23 200.494 352.366 200.494Z" fill="#3F3D56"/>
<path d="M352.366 185.649C357.503 185.649 361.666 180.212 361.666 173.504C361.666 166.796 357.503 161.358 352.366 161.358C347.23 161.358 343.066 166.796 343.066 173.504C343.066 180.212 347.23 185.649 352.366 185.649Z" fill="#3F3D56"/>
<path d="M387.181 71.9179C388.452 70.3042 389.609 68.6048 390.645 66.8319L366.208 62.8281L392.637 63.0242C395.172 57.5211 396.556 51.5598 396.702 45.5051C396.848 39.4504 395.755 33.4296 393.488 27.811L358.03 46.1607L390.73 22.1812C387.667 16.8998 383.546 12.3044 378.624 8.6812C373.703 5.05796 368.086 2.48452 362.124 1.12119C356.162 -0.242134 349.983 -0.366145 343.971 0.756888C337.959 1.87992 332.243 4.22594 327.179 7.64879C322.116 11.0716 317.813 15.498 314.539 20.6521C311.265 25.8063 309.09 31.5778 308.149 37.607C307.208 43.6363 307.522 49.7943 309.071 55.6972C310.62 61.6002 313.371 67.1218 317.152 71.9179C315.172 74.4295 313.469 77.1467 312.072 80.0225L343.793 96.4629L309.969 85.1385C307.595 92.1421 307.008 99.6259 308.262 106.913C309.516 114.2 312.572 121.06 317.152 126.872C311.984 133.427 308.769 141.301 307.875 149.593C306.98 157.885 308.443 166.261 312.096 173.763C315.748 181.265 321.443 187.59 328.529 192.015C335.615 196.441 343.807 198.788 352.167 198.788C360.527 198.788 368.718 196.441 375.805 192.015C382.891 187.59 388.586 181.265 392.238 173.763C395.891 166.261 397.354 157.885 396.459 149.593C395.565 141.301 392.35 133.427 387.181 126.872C393.357 119.038 396.715 109.361 396.715 99.3948C396.715 89.4286 393.357 79.7516 387.181 71.9179Z" fill="#2F3B52"/>
<path opacity="0.1" d="M307.619 99.3948C307.604 109.364 310.963 119.046 317.152 126.872C311.984 133.427 308.769 141.301 307.875 149.593C306.98 157.885 308.443 166.261 312.096 173.763C315.748 181.265 321.443 187.59 328.529 192.015C335.615 196.441 343.807 198.788 352.167 198.788C360.527 198.788 368.718 196.441 375.805 192.015C382.891 187.59 388.586 181.265 392.238 173.763C395.891 166.261 397.353 157.885 396.459 149.593C395.565 141.301 392.35 133.427 387.181 126.872C393.152 119.31 307.619 94.4069 307.619 99.3948Z" fill="black"/>
<path d="M511.001 143.097L521.035 134.171C501.116 130.475 481.125 147.956 475.908 173.406C475.734 173.439 475.563 173.482 475.393 173.533L464.079 136.513C463.246 140.917 462.876 145.394 462.975 149.874L454.151 132.78C450.585 151.902 459.076 169.669 473.33 173.927C472.139 173.929 470.95 173.844 469.773 173.672C469.719 173.664 469.681 173.659 469.681 173.659C469.59 174.602 469.617 175.554 469.762 176.491C469.824 177.015 470.049 177.508 470.404 177.899C470.84 178.289 472.067 178.826 473.675 179.381C473.799 179.424 473.925 179.467 474.053 179.51C475.077 179.853 476.234 180.198 477.427 180.516C478.919 180.914 480.468 181.268 481.888 181.52C482.043 181.547 482.184 181.565 482.318 181.575C482.361 181.579 482.399 181.578 482.44 181.58C482.526 181.584 482.61 181.587 482.688 181.583C482.73 181.582 482.769 181.577 482.809 181.573C482.874 181.568 482.939 181.558 483.003 181.546C483.039 181.539 483.073 181.53 483.106 181.521C483.161 181.506 483.214 181.487 483.266 181.465C483.294 181.453 483.322 181.441 483.347 181.428C483.395 181.402 483.441 181.372 483.483 181.338C483.501 181.324 483.52 181.312 483.536 181.297C483.586 181.253 483.63 181.202 483.667 181.147C483.671 181.142 483.676 181.138 483.68 181.133C483.722 181.068 483.756 180.998 483.782 180.925C483.784 180.92 483.785 180.914 483.786 180.91C483.81 180.839 483.828 180.766 483.84 180.693C483.84 180.688 483.842 180.683 483.843 180.678L483.841 180.681C484.1 178.974 481.704 175.363 481.673 174.341C481.644 173.363 479.239 173.1 477.275 173.233L514.195 143.5C513.139 143.305 512.073 143.17 511.001 143.097Z" fill="#F5487F" fill-opacity="0.8"/>
<path d="M540 178.737C540 183.18 508.595 198.403 471.181 198.403C433.767 198.403 404.513 183.18 404.513 178.737C404.513 174.293 433.767 182.312 471.181 182.312C508.595 182.312 540 174.293 540 178.737Z" fill="#3F3D56"/>
<path opacity="0.1" d="M540 178.737C540 183.18 508.595 198.403 471.181 198.403C433.767 198.403 404.513 183.18 404.513 178.737C404.513 174.293 433.767 182.312 471.181 182.312C508.595 182.312 540 174.293 540 178.737Z" fill="black"/>
<path d="M472.256 186.782C509.67 186.782 540 183.18 540 178.737C540 174.293 509.67 170.691 472.256 170.691C434.843 170.691 404.513 174.293 404.513 178.737C404.513 183.18 434.843 186.782 472.256 186.782Z" fill="#3F3D56"/>
<path opacity="0.1" d="M472.231 183.538C480.251 183.538 486.753 181.376 486.753 178.709C486.753 176.042 480.251 173.88 472.231 173.88C464.211 173.88 457.709 176.042 457.709 178.709C457.709 181.376 464.211 183.538 472.231 183.538Z" fill="black"/>
<path d="M442.036 138.684C442.036 159.187 454.929 175.777 470.863 175.777L442.036 138.684Z" fill="#3F3D56"/>
<path d="M470.863 175.777C470.863 155.044 485.252 138.267 503.033 138.267L470.863 175.777Z" fill="#2F3B52"/>
<path d="M452.481 140.542C452.481 160.018 460.703 175.777 470.863 175.777L452.481 140.542Z" fill="#2F3B52"/>
<path d="M470.863 175.777C470.863 149.285 487.494 127.847 508.046 127.847L470.863 175.777Z" fill="#3F3D56"/>
<path d="M464.799 176.039C464.799 176.039 468.887 175.913 470.119 175.038C471.351 174.163 476.408 173.118 476.713 174.521C477.019 175.925 482.857 181.503 478.242 181.54C473.626 181.577 467.517 180.823 466.287 180.075C465.058 179.328 464.799 176.039 464.799 176.039Z" fill="#A8A8A8"/>
<path opacity="0.2" d="M478.324 181.051C473.708 181.088 467.599 180.334 466.37 179.587C465.433 179.018 465.06 176.976 464.935 176.034C464.849 176.037 464.799 176.039 464.799 176.039C464.799 176.039 465.058 179.328 466.287 180.075C467.517 180.823 473.626 181.577 478.242 181.54C479.574 181.529 480.034 181.056 480.009 180.356C479.824 180.779 479.316 181.043 478.324 181.051Z" fill="black"/>
<path d="M110.657 122.415L115.843 130.609C114.107 132.926 112.874 135.444 113.665 137.109C115.612 141.213 120.088 146.518 122.474 149.348C124.861 152.178 125.194 159.752 141.386 158.846C157.579 157.94 164.129 150.629 164.129 150.629C164.129 150.629 165.564 163.892 172.448 168.638C171.865 169.442 171.082 170.081 170.176 170.492C162.902 173.879 154.963 200.939 149.461 215.804C143.457 232.02 152.58 229.195 152.58 229.195C155.636 229.245 158.444 229.407 161.021 229.65C164.019 237.569 168.773 254.499 163.197 271.936C159.298 284.131 160.118 296.984 161.861 306.665L158.221 310.549C154.163 311.841 152.959 314.362 152.959 314.362L143.617 327.339L145.165 328.456L150.764 320.735C150.764 320.735 151.986 321.824 153.663 325.249C155.341 328.674 150.57 342.043 150.485 343.02C150.401 343.997 154.736 350.931 160.798 353.092C161.212 353.248 161.654 353.315 162.096 353.288L161.541 359.717L164.834 359.672L165.845 347.948C165.845 347.948 168.386 364.242 168.898 365.926C169.41 367.611 174.69 367.408 180.211 368.21C185.733 369.012 191.219 362.594 185.596 359.159C179.973 355.723 179.269 344.836 179.269 344.836C181.93 336.863 175.918 326.504 175.918 326.504L175.23 319.228C175.099 319.522 174.903 319.784 174.658 319.994C174.412 320.204 174.122 320.356 173.81 320.44L174.632 310.918C180.907 303.718 189.109 294.107 193.355 288.305C200.812 278.119 200.412 275.132 200.412 275.132L208.056 241.317C210.594 241.509 213.145 241.462 215.675 241.175C220.848 240.397 218.918 223.444 215.926 209.775C216.711 206.537 217.953 202.081 219.906 195.953C220.845 193.003 221.463 189.961 221.751 186.88C222.933 174.404 218.613 163.971 216.735 160.119L217.385 158.484C217.385 158.484 223.359 151.976 218.683 140.962C218.951 139.798 219.136 138.616 219.237 137.426C219.656 132.163 218.489 126.896 215.886 122.301C215.855 122.247 215.824 122.193 215.791 122.145L215.757 122.092L215.748 122.091C215.705 122.03 215.658 121.971 215.608 121.915C213.709 119.986 204.022 116.333 202.05 115.602C201.942 115.535 201.82 115.49 201.694 115.471C200.968 115.409 201.731 112.228 202.552 109.417C203.573 108.626 204.477 107.696 205.239 106.654C209.303 105.001 212.885 102.356 215.657 98.9624C218.43 95.5685 220.303 91.5342 221.106 87.2299C221.908 82.9256 221.614 78.4891 220.251 74.3277C218.887 70.1663 216.497 66.4132 213.301 63.413C214.428 61.8425 215.211 60.0526 215.598 58.1599C215.984 56.2673 215.967 54.3145 215.545 52.4292C215.124 50.5439 214.309 48.7684 213.153 47.2187C211.998 45.669 210.527 44.3799 208.838 43.4357C211.484 45.6235 213.214 48.7198 213.688 52.1157C214.162 55.5116 213.346 58.9615 211.399 61.7872C211.105 61.5595 210.807 61.3377 210.504 61.1218C211.232 59.1406 211.493 57.0185 211.266 54.9204C211.039 52.8222 210.33 50.8046 209.195 49.0241C208.059 47.2436 206.527 45.7483 204.719 44.6542C202.91 43.5602 200.872 42.8969 198.765 42.7159C196.657 42.5349 194.536 42.841 192.566 43.6105C190.597 44.38 188.831 45.5922 187.407 47.1528C185.983 48.7135 184.939 50.5806 184.356 52.6091C183.773 54.6377 183.666 56.773 184.045 58.8493C179.994 60.7774 176.507 63.7111 173.919 67.3693C171.331 71.0275 169.728 75.2875 169.264 79.7411C168.8 84.1946 169.491 88.6924 171.269 92.8034C173.048 96.9144 175.855 100.501 179.422 103.219C176.8 104.438 173.926 105.018 171.035 104.912C168.145 104.806 165.321 104.017 162.796 102.609C165.439 104.79 168.644 106.186 172.045 106.635C175.446 107.084 178.904 106.57 182.026 105.15C183.194 107.283 184.906 109.07 186.99 110.33C186.769 110.954 186.472 111.55 186.107 112.103L185.27 111.436L181.64 115.389L172.275 117.209C172.275 117.209 166.287 118.007 159.466 124.639C152.645 131.271 141.181 134.551 141.181 134.551L132.181 132.138C132.181 132.138 121.83 126.328 121.942 125.025C121.96 124.818 121.712 124.881 121.291 125.146L116.229 115.02C116.229 115.02 106.742 91.5684 100.659 97.2793C94.5755 102.99 110.657 122.415 110.657 122.415ZM177.485 277.86L177.719 275.152C180.788 270.827 182.51 260.162 183.471 250.276L182.075 274.213C180.335 275.14 178.779 276.376 177.485 277.86ZM164.959 328.498L164.909 332.12C163.918 333.892 163.173 335.791 162.695 337.763C162.409 336.033 163.605 332.143 164.959 328.498Z" fill="#F5487F" fill-opacity="0.8"/>
<path d="M331.408 361.895C331.408 372.764 254.59 410 163.074 410C71.558 410 0 372.764 0 361.895C0 351.026 71.558 370.641 163.074 370.641C254.59 370.641 331.408 351.026 331.408 361.895Z" fill="#3F3D56"/>
<path opacity="0.1" d="M331.408 361.895C331.408 372.764 254.59 410 163.074 410C71.558 410 0 372.764 0 361.895C0 351.026 71.558 370.641 163.074 370.641C254.59 370.641 331.408 351.026 331.408 361.895Z" fill="black"/>
<path d="M165.704 381.574C257.22 381.574 331.408 372.764 331.408 361.895C331.408 351.026 257.22 342.216 165.704 342.216C74.1882 342.216 0 351.026 0 361.895C0 372.764 74.1882 381.574 165.704 381.574Z" fill="#3F3D56"/>
<path opacity="0.1" d="M166.733 370.26C197.032 370.26 221.594 364.975 221.594 358.455C221.594 351.936 197.032 346.651 166.733 346.651C136.434 346.651 111.873 351.936 111.873 358.455C111.873 364.975 136.434 370.26 166.733 370.26Z" fill="black"/>
<path d="M161.148 102.008C163.443 100.269 165.291 98.0117 166.544 95.4222C167.796 92.8328 168.416 89.9844 168.353 87.1101C168.29 84.2358 167.545 81.4172 166.181 78.8849C164.816 76.3526 162.87 74.1786 160.501 72.5408C162.813 73.5832 164.882 75.0947 166.575 76.9791C168.268 78.8635 169.55 81.0793 170.337 83.4851C171.124 85.891 171.4 88.4341 171.147 90.9523C170.894 93.4705 170.118 95.9085 168.868 98.1107C167.618 100.313 165.922 102.231 163.887 103.743C161.853 105.255 159.525 106.327 157.052 106.891C154.579 107.455 152.015 107.499 149.524 107.02C147.033 106.54 144.669 105.548 142.584 104.107C145.581 105.458 148.888 105.976 152.156 105.607C155.423 105.238 158.53 103.994 161.148 102.008Z" fill="#2F2E41"/>
<path d="M194.076 118.986H197.025C199.204 122.085 200.684 125.618 201.363 129.343C202.042 133.067 201.903 136.894 200.957 140.559C197.68 152.98 200.301 155.268 200.301 155.268C200.301 155.268 212.097 171.938 207.51 192.204C202.923 212.469 204.233 214.757 204.233 214.757L196.042 198.414L191.455 155.268L194.076 118.986Z" fill="#2F3B52"/>
<path opacity="0.1" d="M194.076 119.003H197.025C199.204 122.102 200.684 125.635 201.363 129.359C202.042 133.084 201.903 136.91 200.957 140.576C197.68 152.997 200.301 155.285 200.301 155.285C200.301 155.285 212.097 171.955 207.51 192.221C202.923 212.486 204.233 214.774 204.233 214.774L196.042 198.431L191.455 155.285L194.076 119.003Z" fill="black"/>
<path d="M173.27 107.383C187.747 107.383 199.482 95.6754 199.482 81.2337C199.482 66.7919 187.747 55.0846 173.27 55.0846C158.794 55.0846 147.058 66.7919 147.058 81.2337C147.058 95.6754 158.794 107.383 173.27 107.383Z" fill="#2F2E41"/>
<path d="M183.755 103.134C183.755 103.134 181.134 113.593 182.444 113.593C183.755 113.593 188.342 119.15 188.342 119.15L191.291 129.936L188.997 137.781L181.134 136.147L171.304 125.36L168.356 122.418L165.734 112.939C165.734 112.939 169.011 109.017 166.717 105.748C164.424 102.48 183.755 103.134 183.755 103.134Z" fill="#FBBEBE"/>
<path opacity="0.1" d="M183.755 103.134C183.755 103.134 181.134 113.593 182.444 113.593C183.755 113.593 188.342 119.15 188.342 119.15L191.291 129.936L188.997 137.781L181.134 136.147L171.304 125.36L168.356 122.418L165.734 112.939C165.734 112.939 169.011 109.017 166.717 105.748C164.424 102.48 183.755 103.134 183.755 103.134Z" fill="black"/>
<path d="M104.464 132.224L97.2554 120.457C97.2554 120.457 89.4744 103.282 83.9044 109.493C78.3343 115.703 92.3407 128.302 92.3407 128.302L99.549 137.781L104.464 132.224Z" fill="#FBBEBE"/>
<path d="M200.138 234.533L194.895 272.776C194.895 272.776 195.55 275.717 188.997 286.504C182.444 297.29 164.751 320.825 164.751 320.825L159.509 311.019C159.509 311.019 165.734 279.967 176.547 273.429L175.236 226.361L200.138 234.533Z" fill="#FBBEBE"/>
<path opacity="0.1" d="M200.138 234.533L194.895 272.776C194.895 272.776 195.55 275.717 188.997 286.504C182.444 297.29 164.751 320.825 164.751 320.825L159.509 311.019C159.509 311.019 165.734 279.967 176.547 273.429L175.236 226.361L200.138 234.533Z" fill="black"/>
<path d="M159.509 307.096L166.717 320.825C166.717 320.825 160.82 337.495 163.113 339.129C165.407 340.763 168.356 355.472 162.13 353.838C155.905 352.203 150.99 345.666 150.99 344.686C150.99 343.705 154.594 329.977 152.628 326.708C150.662 323.439 149.352 322.459 149.352 322.459L144.437 330.63L142.799 329.65L150.99 315.922C150.99 315.922 151.973 313.307 155.905 311.672L159.509 307.096Z" fill="#2F2E41"/>
<path opacity="0.1" d="M159.509 307.096L166.717 320.825C166.717 320.825 160.82 337.495 163.113 339.129C165.407 340.763 168.356 355.472 162.13 353.838C155.905 352.203 150.99 345.666 150.99 344.686C150.99 343.705 154.594 329.977 152.628 326.708C150.662 323.439 149.352 322.459 149.352 322.459L144.437 330.63L142.799 329.65L150.99 315.922C150.99 315.922 151.973 313.307 155.905 311.672L159.509 307.096Z" fill="black"/>
<path d="M175.313 229.107C175.313 229.107 177.857 265.258 172.287 274.737V321.805L164.751 322.786C164.751 322.786 151.973 297.29 157.543 272.776C163.113 248.261 149.352 226.361 149.352 226.361L175.313 229.107Z" fill="#FBBEBE"/>
<path d="M173.434 111.142C181.034 111.142 187.195 104.995 187.195 97.4134C187.195 89.8315 181.034 83.6852 173.434 83.6852C165.834 83.6852 159.673 89.8315 159.673 97.4134C159.673 104.995 165.834 111.142 173.434 111.142Z" fill="#FBBEBE"/>
<path d="M187.359 133.532L173.598 116.208L165.734 110.978L162.458 115.227L153.284 117.842C153.284 117.842 147.386 119.15 141.161 126.341C134.935 133.532 123.795 137.781 123.795 137.781L114.621 136.147C114.621 136.147 103.808 131.244 103.808 129.936C103.808 128.629 94.3066 138.762 96.6002 142.684C98.8937 146.606 103.808 151.509 106.43 154.124C109.051 156.739 110.034 164.257 126.089 161.969C142.144 159.681 148.041 151.836 148.041 151.836C148.041 151.836 150.99 166.872 159.509 169.814C168.028 172.755 195.878 174.717 195.878 174.717L201.776 155.105C201.776 155.105 208.329 146.606 199.482 134.186C199.482 134.186 199.312 127.239 198.361 122.616C197.992 120.818 197.503 119.372 196.861 118.823C194.568 116.862 182.445 113.593 182.445 113.593C182.445 113.593 184.41 120.13 185.393 120.457C186.376 120.784 188.67 131.898 187.359 133.532Z" fill="#2F3B52"/>
<path d="M143.29 231.101C159.791 229.957 169.397 232.653 173.683 234.709C174.48 235.069 175.23 235.523 175.918 236.062C176.232 236.327 176.383 236.533 176.383 236.657C176.383 237.638 198.991 239.599 207.182 237.638C215.373 235.677 201.612 193.511 198.008 189.916C194.404 186.32 196.347 173.161 196.347 173.161C196.347 173.161 189.161 171.611 187.195 172.265C185.23 172.919 175.072 171.285 171.468 169.323C167.864 167.362 163.277 168.67 160.328 168.016C159.011 167.725 158.346 168.215 158.015 168.849C157.5 169.801 156.722 170.584 155.774 171.108C148.818 175.106 143.235 202.745 139.031 218.026C134.444 234.696 143.29 231.101 143.29 231.101Z" fill="#2F2E41"/>
<path d="M173.598 318.863L174.909 326.054C174.909 326.054 181.789 335.86 179.823 344.032C179.823 344.032 181.462 354.818 187.359 357.76C193.257 360.702 188.342 367.566 182.772 367.239C177.202 366.912 171.96 367.566 171.304 365.932C170.649 364.297 166.717 348.281 166.717 348.281V360.048L163.441 360.375V345.666C163.441 345.666 160.82 340.763 164.424 332.592L163.514 320.048C163.514 320.048 172.615 322.132 173.598 318.863Z" fill="#2F2E41"/>
<path d="M173.27 68.8128C180.87 68.8128 187.032 62.6665 187.032 55.0846C187.032 47.5027 180.87 41.3563 173.27 41.3563C165.67 41.3563 159.509 47.5027 159.509 55.0846C159.509 62.6665 165.67 68.8128 173.27 68.8128Z" fill="#2F2E41"/>
<path d="M183.856 63.4263C185.586 62.1148 186.98 60.4134 187.924 58.4613C188.868 56.5093 189.335 54.362 189.287 52.1952C189.24 50.0283 188.679 47.9035 187.65 45.9946C186.621 44.0856 185.154 42.4467 183.369 41.212C185.111 41.9978 186.671 43.1373 187.947 44.5579C189.224 45.9784 190.19 47.6488 190.783 49.4625C191.377 51.2761 191.585 53.1933 191.394 55.0916C191.203 56.99 190.618 58.8278 189.676 60.488C188.734 62.1482 187.455 63.5942 185.921 64.7338C184.387 65.8735 182.632 66.6818 180.768 67.1071C178.904 67.5324 176.971 67.5654 175.093 67.2041C173.215 66.8427 171.434 66.0949 169.862 65.0084C172.121 66.0269 174.614 66.4176 177.077 66.1391C179.541 65.8607 181.883 64.9233 183.856 63.4263Z" fill="#2F2E41"/>
<path d="M173.598 97.5768C181.379 97.5768 187.687 92.6012 187.687 86.4635C187.687 80.3257 181.379 75.3501 173.598 75.3501C165.817 75.3501 159.509 80.3257 159.509 86.4635C159.509 92.6012 165.817 97.5768 173.598 97.5768Z" fill="#2F2E41"/>
<path opacity="0.1" d="M173.683 234.709C174.48 235.069 175.23 235.523 175.918 236.062C176.091 232.973 177.094 214.293 175.892 214.594L173.683 234.709Z" fill="black"/>
<path d="M58.0877 124.516C83.6336 124.516 104.343 103.857 104.343 78.3725C104.343 52.8879 83.6336 32.2286 58.0877 32.2286C32.5417 32.2286 11.8327 52.8879 11.8327 78.3725C11.8327 103.857 32.5417 124.516 58.0877 124.516Z" fill="#FF6584"/>
<path d="M88.9329 116.44C89.3081 115.633 88.0833 114.272 86.1973 113.398C84.3113 112.525 82.4782 112.471 82.103 113.277C81.7278 114.083 82.9525 115.445 84.8385 116.318C86.7246 117.192 88.5577 117.246 88.9329 116.44Z" fill="#FBBEBE"/>
</g>
<defs>
<clipPath id="clip0">
<rect width="540" height="410" fill="white"/>
</clipPath>
</defs>
</svg>
